<?xml version="1.0" encoding="utf-8"?>
<!-- Generator: Adobe Illustrator 17.0.0, SVG Export Plug-In . SVG Version: 6.00 Build 0)  -->
<!DOCTYPE svg PUBLIC "-//W3C//DTD SVG 1.1//EN" "http://www.w3.org/Graphics/SVG/1.1/DTD/svg11.dtd">
<svg version="1.1" id="Layer_1" xmlns="http://www.w3.org/2000/svg" xmlns:xlink="http://www.w3.org/1999/xlink" x="0px" y="0px"
	 width="360px" height="41px" viewBox="-40.421 -2.432 360 41" enable-background="new -40.421 -2.432 360 41" xml:space="preserve"
	>
<g>
	<path fill="#00ADEE" d="M-13.642,33.462c2.287-1.283,4.889-1.706,5.82-0.962c0.925,0.755-0.176,2.398-2.464,3.675h-0.004
		c-0.365-0.12-0.806-0.376-1.322-0.783c-0.077-0.064-0.057-0.04-0.28-0.222C-12.432,34.717-13.021,34.138-13.642,33.462"/>
	<path fill="#00ADEE" d="M-17.707,28.243c5.945-3.318,12.715-4.431,15.124-2.485c1.282,1.04,1.071,2.734-0.305,4.598
		c-0.337,0.429-0.786,0.997-1.145,1.413c-0.892,0.966-0.927,1.006-1.503,1.537c-0.862,0.766-0.882,0.783-1.373,1.17
		c-0.846,0.621-0.846,0.621-1.297,0.917l-0.08,0.054c3.444-2.235,4.969-4.842,3.422-6.097c-1.712-1.383-6.52-0.594-10.74,1.759
		C-16.286,30.236-16.99,29.275-17.707,28.243"/>
	<path fill="#00ADEE" d="M-22.037,21.382c8.567-4.779,18.331-6.383,21.801-3.576c0.997,0.81,1.367,1.886,1.186,3.129l-0.137,0.852
		c-0.39,1.772-0.475,2.14-1.123,3.909c0.622-1.543,0.436-2.898-0.71-3.827c-3.008-2.429-11.445-1.042-18.854,3.095
		C-20.602,23.813-21.326,22.615-22.037,21.382"/>
	<path fill="#00ADEE" d="M-26.047,13.787C-16.271,8.327-5.135,6.5-1.172,9.706c0.594,0.479,0.992,1.045,1.207,1.679
		c0.606,2.026,0.67,2.235,0.915,3.821l0.109,0.925c-0.084-0.94-0.515-1.766-1.33-2.423c-3.796-3.076-14.476-1.323-23.849,3.914
		C-24.791,16.347-25.437,15.065-26.047,13.787"/>
	<path fill="#00ADEE" d="M-28.964,6.807C-19.72,1.645-9.19-0.082-5.443,2.949c0.095,0.075,0.182,0.152,0.266,0.232
		c0.374,0.394,0.886,0.906,1.246,1.315c0.574,0.712,1.305,1.686,1.821,2.437C-2.325,6.596-2.608,6.28-2.958,5.999
		c-3.941-3.189-15.028-1.371-24.758,4.065C-28.205,8.889-28.623,7.801-28.964,6.807"/>
	<path fill="#00ADEE" d="M-30.153,2.04c6.074-3.391,12.868-4.864,16.544-3.79c0.61,0.205,1.416,0.482,2.013,0.718
		c0.771,0.355,1.788,0.856,2.534,1.263C-12.86-1.951-21.843-0.315-29.78,4.117C-29.976,3.32-30.1,2.625-30.153,2.04"/>
	<path fill="#00ADEE" d="M-29.653-0.002c0.831-0.444,0.831-0.444,1.241-0.636c0.369-0.167,0.86-0.381,1.231-0.536
		c0.848-0.319,0.848-0.319,1.282-0.46c0.886-0.266,0.92-0.275,1.397-0.394c0.991-0.226,1.028-0.232,1.579-0.324
		c1.136-0.161,1.202-0.17,1.881-0.22c1.368-0.064,1.394-0.066,2.108-0.044c-3.011-0.089-7.267,1.081-11.15,3.253
		C-29.999,0.326-29.853,0.115-29.653-0.002"/>
	<path d="M-9.469,36.159c-0.367,0.195-0.862,0.449-1.235,0.637c-0.367,0.17-0.86,0.377-1.236,0.534
		c-0.832,0.314-0.847,0.321-1.282,0.457l-0.616,0.192c-2.741,0.786-5.192,0.813-6.311-0.097c-1.712-1.381,0.322-4.412,4.546-6.773
		c0.682,0.877,1.338,1.667,1.961,2.353c-2.284,1.276-3.389,2.919-2.465,3.667c0.93,0.748,3.534,0.322,5.818-0.953
		C-9.951,36.284-9.676,36.276-9.469,36.159"/>
	<path d="M-23.465,38.409c-1.747-0.397-1.892-0.43-3.011-0.817c-0.537-0.189-1.001-0.435-1.379-0.745
		c-3.003-2.423,0.57-7.748,7.981-11.887c0.725,1.153,1.453,2.249,2.168,3.283c-5.943,3.319-8.812,7.587-6.404,9.539
		c0.652,0.527,1.623,0.83,2.809,0.923C-21.949,38.632-22.821,38.537-23.465,38.409"/>
	<path d="M-32.59,34.171c-0.517-0.455-1.21-1.062-1.703-1.546l-0.321-0.334c-3.041-3.216,1.484-9.635,10.496-14.668
		c0.672,1.272,1.371,2.529,2.082,3.76c-8.571,4.787-12.702,10.942-9.228,13.75c0.121,0.1,0.251,0.192,0.387,0.282
		C-31.395,35.052-32.099,34.576-32.59,34.171"/>
	<path d="M-38.417,26.625c-0.335-0.825-0.753-1.932-1.028-2.775c-1.036-3.589,3.577-9.235,11.728-13.786
		c0.295,0.698,0.614,1.432,0.96,2.192c0.23,0.509,0.469,1.02,0.711,1.532C-34.837,18.7-39.532,24.87-37.507,28.399
		C-37.785,27.868-38.181,27.171-38.417,26.625"/>
	<path d="M-39.929,14.371l0.015-0.075c0.562-2.999,4.291-6.919,10.134-10.179c0.201,0.795,0.467,1.699,0.816,2.69
		c-7.135,3.985-11.42,8.853-11.28,12.257C-40.259,17.531-40.27,16.419-39.929,14.371"/>
	<path d="M-36.741,6.535c0.357-0.502,0.847-1.165,1.227-1.644c1.177-1.423,3.043-2.92,5.434-4.253
		c-0.102,0.349-0.125,0.82-0.071,1.403c-4.263,2.378-7.209,5.169-8.279,7.526C-37.822,8.333-37.454,7.587-36.741,6.535"/>
	<path fill="#00ADEE" d="M-0.94,32.87c0.025,0.049,0.057,0.09,0.1,0.124c0.044,0.025,0.094,0.051,0.15,0.065
		c0.056,0.015,0.116,0.02,0.177,0.02c0.042,0,0.086,0,0.135-0.009c0.047-0.007,0.09-0.02,0.131-0.04
		c0.042-0.016,0.076-0.046,0.105-0.079c0.027-0.036,0.042-0.079,0.042-0.13c0-0.059-0.02-0.107-0.056-0.141
		c-0.036-0.036-0.085-0.064-0.142-0.089c-0.06-0.024-0.129-0.045-0.202-0.06c-0.074-0.02-0.15-0.04-0.229-0.064
		c-0.077-0.017-0.155-0.04-0.23-0.069c-0.075-0.031-0.144-0.067-0.202-0.114c-0.059-0.045-0.106-0.101-0.141-0.167
		c-0.04-0.071-0.056-0.152-0.056-0.251c0-0.106,0.022-0.202,0.07-0.279c0.045-0.082,0.106-0.15,0.18-0.202
		c0.077-0.054,0.161-0.091,0.256-0.117c0.095-0.026,0.19-0.037,0.282-0.037c0.112,0,0.219,0.011,0.32,0.035
		c0.101,0.025,0.191,0.066,0.272,0.12c0.077,0.056,0.141,0.127,0.185,0.212c0.047,0.085,0.071,0.19,0.071,0.312H-0.17
		c-0.006-0.064-0.019-0.117-0.04-0.159c-0.024-0.04-0.054-0.074-0.091-0.096c-0.037-0.024-0.081-0.041-0.129-0.05
		c-0.049-0.009-0.102-0.014-0.16-0.014c-0.036,0-0.074,0.001-0.111,0.009c-0.036,0.009-0.071,0.025-0.101,0.044
		c-0.034,0.02-0.057,0.044-0.076,0.075c-0.019,0.027-0.03,0.065-0.03,0.111c0,0.041,0.009,0.077,0.022,0.1
		c0.016,0.026,0.049,0.051,0.094,0.071c0.047,0.025,0.111,0.044,0.194,0.065c0.081,0.024,0.189,0.052,0.321,0.084
		c0.041,0.007,0.092,0.024,0.164,0.044c0.07,0.02,0.14,0.051,0.21,0.097c0.067,0.045,0.129,0.107,0.179,0.184
		c0.051,0.075,0.075,0.17,0.075,0.291c0,0.094-0.017,0.185-0.056,0.269C0.258,33.116,0.2,33.189,0.126,33.25
		c-0.074,0.06-0.167,0.105-0.276,0.139c-0.109,0.035-0.235,0.051-0.38,0.051c-0.117,0-0.23-0.015-0.337-0.044
		c-0.11-0.029-0.207-0.072-0.291-0.134c-0.085-0.061-0.151-0.139-0.2-0.235c-0.05-0.092-0.074-0.207-0.071-0.339h0.451
		C-0.977,32.76-0.966,32.821-0.94,32.87"/>
</g>
<polygon fill="#00ADEE" points="1.28,31.277 1.773,32.73 1.782,32.73 2.248,31.277 2.903,31.277 2.903,33.39 2.468,33.39 
	2.468,31.89 2.462,31.89 1.943,33.39 1.585,33.39 1.066,31.908 1.061,31.908 1.061,33.39 0.624,33.39 0.624,31.277 "/>
<path d="M18.192,11.054h5.645l-2.77-7.948h-0.026h-0.052L18.192,11.054z M19.332-0.079h3.444l7.12,18.487h-3.469l-1.736-4.893
	h-7.379l-1.734,4.893h-3.34L19.332-0.079z"/>
<g>
	<path d="M29.511,5.022h2.228V1.008h2.95v4.014h2.668v2.2h-2.668v7.146c0,1.217,0.105,1.839,1.424,1.839
		c0.414,0,0.828,0,1.243-0.104v2.278c-0.647,0.051-1.27,0.155-1.917,0.155c-3.081,0-3.651-1.191-3.701-3.417V7.222h-2.228V5.022z"/>
</g>
<rect x="39.17" y="-0.079" width="2.951" height="18.487"/>
<g>
	<path d="M53.204,11.7c-0.906,0.596-2.33,0.57-3.625,0.803c-1.268,0.206-2.409,0.672-2.409,2.227c0,1.32,1.683,1.708,2.72,1.708
		c1.295,0,3.314-0.674,3.314-2.538V11.7z M56.155,15.43c0,0.725,0.155,1.01,0.698,1.01c0.181,0,0.415,0,0.726-0.051v2.044
		c-0.441,0.156-1.373,0.337-1.864,0.337c-1.191,0-2.046-0.415-2.279-1.631c-1.165,1.138-3.054,1.631-4.633,1.631
		c-2.408,0-4.583-1.295-4.583-3.91c0-3.34,2.667-3.884,5.152-4.168c2.124-0.387,4.014-0.155,4.014-1.891
		c0-1.527-1.579-1.811-2.77-1.811c-1.657,0-2.823,0.671-2.951,2.122H44.71c0.207-3.442,3.134-4.453,6.085-4.453
		c2.615,0,5.359,1.062,5.359,3.885C56.155,8.544,56.155,15.43,56.155,15.43z"/>
	<path d="M58.954,5.022h2.796V6.99l0.051,0.051c0.88-1.476,2.408-2.382,4.168-2.382c2.9,0,4.738,1.553,4.738,4.556v9.193h-2.951
		V9.992c-0.051-2.097-0.88-3.003-2.615-3.003c-1.968,0-3.235,1.553-3.235,3.521v7.897h-2.953V5.022z"/>
	<path d="M72.084,5.022h2.227V1.008h2.953v4.014h2.665v2.2h-2.665v7.146c0,1.217,0.102,1.839,1.423,1.839
		c0.414,0,0.828,0,1.242-0.104v2.278c-0.646,0.051-1.268,0.155-1.914,0.155c-3.081,0-3.651-1.191-3.704-3.417V7.222h-2.227V5.022z"
		/>
	<path d="M89.923,11.7c-0.907,0.596-2.33,0.57-3.625,0.803c-1.268,0.206-2.408,0.672-2.408,2.227c0,1.32,1.683,1.708,2.719,1.708
		c1.295,0,3.314-0.674,3.314-2.538V11.7z M92.875,15.43c0,0.725,0.156,1.01,0.698,1.01c0.182,0,0.415,0,0.726-0.051v2.044
		c-0.44,0.156-1.372,0.337-1.864,0.337c-1.191,0-2.046-0.415-2.278-1.631c-1.166,1.138-3.056,1.631-4.636,1.631
		c-2.407,0-4.583-1.295-4.583-3.91c0-3.34,2.668-3.884,5.154-4.168c2.122-0.387,4.012-0.155,4.012-1.891
		c0-1.527-1.579-1.811-2.77-1.811c-1.657,0-2.821,0.671-2.953,2.122h-2.95c0.206-3.442,3.133-4.453,6.084-4.453
		c2.615,0,5.359,1.062,5.359,3.885C92.875,8.544,92.875,15.43,92.875,15.43z"/>
	<path d="M114.238,5.514c-0.621-2.848-2.976-4.48-5.669-4.48c-4.894,0-6.965,4.092-6.965,8.13c0,4.04,2.07,8.131,6.965,8.131
		c3.417,0,5.592-2.642,5.929-5.93h1.759c-0.491,4.532-3.365,7.432-7.688,7.432c-5.827,0-8.726-4.583-8.726-9.633
		c0-5.048,2.899-9.63,8.726-9.63c3.495,0,6.965,2.097,7.43,5.98H114.238z"/>
	<path d="M119.473,11.727c0,2.848,1.553,5.697,4.687,5.697c3.133,0,4.686-2.849,4.686-5.697s-1.553-5.697-4.686-5.697
		C121.024,6.03,119.473,8.879,119.473,11.727 M130.475,11.727c0,3.832-2.227,7.069-6.316,7.069c-4.091,0-6.318-3.236-6.318-7.069
		c0-3.831,2.227-7.067,6.318-7.067C128.249,4.659,130.475,7.895,130.475,11.727"/>
	<path d="M132.628,5.048h1.632v2.304h0.051c0.597-1.606,2.382-2.693,4.273-2.693c3.754,0,4.893,1.968,4.893,5.153v8.596h-1.632
		v-8.337c0-2.305-0.753-4.04-3.393-4.04c-2.588,0-4.142,1.968-4.193,4.583v7.793h-1.632V5.048z"/>
</g>
<polygon points="144.54,5.048 146.351,5.048 150.546,16.776 150.596,16.776 154.741,5.048 156.423,5.048 151.426,18.407 
	149.691,18.407 "/>
<g>
	<path d="M167.509,10.794c-0.077-2.459-1.606-4.763-4.246-4.763c-2.668,0-4.141,2.33-4.4,4.763H167.509z M158.862,12.168
		c0.026,2.382,1.267,5.256,4.4,5.256c2.382,0,3.675-1.398,4.192-3.417h1.633c-0.701,3.03-2.46,4.791-5.825,4.791
		c-4.246,0-6.032-3.264-6.032-7.07c0-3.52,1.786-7.067,6.032-7.067c4.297,0,6.008,3.754,5.877,7.508H158.862z"/>
	<path d="M171.186,5.048h1.631v2.304h0.054c0.595-1.606,2.382-2.693,4.271-2.693c3.754,0,4.896,1.968,4.896,5.153v8.596h-1.633
		v-8.337c0-2.305-0.752-4.04-3.391-4.04c-2.588,0-4.142,1.968-4.196,4.583v7.793h-1.631L171.186,5.048L171.186,5.048z"/>
	<path d="M187.579,5.048h2.718V6.42h-2.718v9.01c0,1.061,0.154,1.683,1.321,1.761c0.465,0,0.932-0.026,1.397-0.077v1.398
		c-0.492,0-0.956,0.051-1.449,0.051c-2.173,0-2.925-0.725-2.898-3.004V6.42h-2.33V5.048h2.33V1.034h1.631v4.014H187.579z"/>
</g>
<path d="M193.585,5.048h1.631v13.36h-1.631V5.048z M193.585-0.079h1.631v2.615h-1.631V-0.079z"/>
<g>
	<path d="M199.178,11.727c0,2.848,1.554,5.697,4.686,5.697c3.134,0,4.688-2.849,4.688-5.697s-1.554-5.697-4.688-5.697
		C200.733,6.03,199.178,8.879,199.178,11.727 M210.183,11.727c0,3.832-2.224,7.069-6.319,7.069c-4.09,0-6.316-3.236-6.316-7.069
		c0-3.831,2.225-7.067,6.316-7.067C207.959,4.659,210.183,7.895,210.183,11.727"/>
	<path d="M212.465,5.048h1.631v2.304h0.052c0.595-1.606,2.382-2.693,4.272-2.693c3.754,0,4.893,1.968,4.893,5.153v8.596h-1.632
		v-8.337c0-2.305-0.751-4.04-3.391-4.04c-2.589,0-4.142,1.968-4.195,4.583v7.793h-1.631L212.465,5.048L212.465,5.048z"/>
	<path d="M244.573,5.514c-0.621-2.848-2.979-4.48-5.672-4.48c-4.891,0-6.964,4.092-6.964,8.13c0,4.04,2.073,8.131,6.964,8.131
		c3.418,0,5.595-2.642,5.93-5.93h1.761c-0.494,4.532-3.366,7.432-7.691,7.432c-5.825,0-8.723-4.583-8.723-9.633
		c0-5.048,2.898-9.63,8.723-9.63c3.495,0,6.964,2.097,7.43,5.98H244.573z"/>
	<path d="M258.454,10.794c-0.077-2.459-1.606-4.763-4.246-4.763c-2.668,0-4.143,2.33-4.4,4.763H258.454z M249.807,12.168
		c0.025,2.382,1.267,5.256,4.4,5.256c2.382,0,3.677-1.398,4.195-3.417h1.632c-0.7,3.03-2.462,4.791-5.827,4.791
		c-4.246,0-6.033-3.264-6.033-7.07c0-3.52,1.787-7.067,6.033-7.067c4.297,0,6.008,3.754,5.879,7.508H249.807z"/>
	<path d="M262.131,5.048h1.631v2.304h0.054c0.595-1.606,2.382-2.693,4.272-2.693c3.754,0,4.892,1.968,4.892,5.153v8.596h-1.631
		v-8.337c0-2.305-0.752-4.04-3.393-4.04c-2.589,0-4.141,1.968-4.195,4.583v7.793h-1.631V5.048L262.131,5.048z"/>
	<path d="M278.524,5.048h2.719V6.42h-2.719v9.01c0,1.061,0.155,1.683,1.32,1.761c0.467,0,0.932-0.026,1.399-0.077v1.398
		c-0.494,0-0.96,0.051-1.449,0.051c-2.174,0-2.926-0.725-2.899-3.004V6.42h-2.333V5.048h2.333V1.034h1.631v4.014H278.524z"/>
	<path d="M292.815,10.794c-0.077-2.459-1.602-4.763-4.245-4.763c-2.665,0-4.142,2.33-4.401,4.763H292.815z M284.168,12.168
		c0.026,2.382,1.268,5.256,4.401,5.256c2.382,0,3.677-1.398,4.195-3.417h1.631c-0.7,3.03-2.458,4.791-5.825,4.791
		c-4.246,0-6.032-3.264-6.032-7.07c0-3.52,1.786-7.067,6.032-7.067c4.298,0,6.008,3.754,5.879,7.508H284.168z"/>
	<path d="M297.041,5.048h1.502V8.18h0.051c0.827-2.149,2.64-3.417,5.047-3.314v1.631c-2.949-0.155-4.971,2.021-4.971,4.789v7.121
		h-1.631V5.048H297.041z"/>
</g>
<path fill="#7F8184" d="M34.125,31.699h3.525l-1.729-4.963h-0.015h-0.035L34.125,31.699z M34.836,24.746h2.153l4.443,11.546h-2.164
	l-1.082-3.058h-4.611l-1.082,3.058h-2.084L34.836,24.746z"/>
<g>
	<path fill="#7F8184" d="M41.885,27.931h1.744v1.166h0.047c0.551-0.827,1.245-1.393,2.574-1.393c1.018,0,1.972,0.437,2.343,1.393
		c0.612-0.857,1.404-1.393,2.62-1.393c1.763,0,2.796,0.776,2.796,2.816v5.772h-1.846v-4.882c0-1.327-0.077-2.249-1.518-2.249
		c-1.243,0-1.778,0.827-1.778,2.23v4.901h-1.842v-5.367c0-1.147-0.36-1.764-1.474-1.764c-0.95,0-1.827,0.776-1.827,2.165v4.966
		h-1.841L41.885,27.931L41.885,27.931z"/>
	<path fill="#7F8184" d="M60.812,31.377c-0.064-1.163-0.855-2.214-2.102-2.214c-1.276,0-2.149,0.966-2.198,2.214H60.812z
		 M56.512,32.586c0,1.311,0.712,2.474,2.249,2.474c1.066,0,1.713-0.469,2.035-1.389h1.749c-0.407,1.824-1.961,2.846-3.785,2.846
		c-2.62,0-4.092-1.828-4.092-4.398c0-2.379,1.552-4.417,4.041-4.417c2.637,0,4.253,2.378,3.946,4.883h-6.144V32.586z"/>
	<path fill="#7F8184" d="M63.532,27.931h1.731v1.618h0.032c0.211-0.888,1.311-1.847,2.44-1.847c0.421,0,0.536,0.034,0.696,0.051
		v1.777c-0.259-0.029-0.531-0.077-0.793-0.077c-1.26,0-2.26,1.018-2.26,2.859v3.98h-1.846
		C63.532,36.291,63.532,27.931,63.532,27.931z"/>
</g>
<path fill="#7F8184" d="M69.252,27.931h1.843v8.362h-1.843V27.931z M69.252,24.747h1.843v1.744h-1.843V24.747z"/>
<g>
	<path fill="#7F8184" d="M77.933,30.727c-0.145-1.017-0.886-1.566-1.907-1.566c-0.955,0-2.299,0.501-2.299,3.04
		c0,1.389,0.617,2.86,2.217,2.86c1.07,0,1.814-0.711,1.989-1.907h1.844c-0.339,2.165-1.683,3.361-3.834,3.361
		c-2.618,0-4.057-1.859-4.057-4.315c0-2.524,1.373-4.5,4.123-4.5c1.939,0,3.589,0.973,3.767,3.025H77.933z"/>
	<path fill="#7F8184" d="M85.884,32.105c-0.569,0.369-1.456,0.354-2.264,0.499c-0.792,0.13-1.506,0.419-1.506,1.392
		c0,0.82,1.056,1.065,1.699,1.065c0.81,0,2.07-0.417,2.07-1.582V32.105z M87.728,34.431c0,0.452,0.096,0.631,0.435,0.631
		c0.116,0,0.26,0,0.452-0.027v1.273c-0.274,0.099-0.857,0.21-1.162,0.21c-0.746,0-1.278-0.256-1.424-1.017
		c-0.727,0.707-1.909,1.017-2.895,1.017c-1.504,0-2.86-0.807-2.86-2.44c0-2.087,1.664-2.425,3.218-2.602
		c1.328-0.246,2.508-0.097,2.508-1.183c0-0.955-0.986-1.128-1.731-1.128c-1.035,0-1.766,0.42-1.846,1.327h-1.842
		c0.129-2.15,1.956-2.785,3.8-2.785c1.633,0,3.348,0.664,3.348,2.425V34.431z"/>
	<path fill="#7F8184" d="M90.619,33.606c0.1,1.065,0.91,1.454,1.893,1.454c0.693,0,1.908-0.144,1.861-1.1
		c-0.05-0.97-1.392-1.08-2.735-1.389c-1.357-0.291-2.684-0.778-2.684-2.473c0-1.829,1.976-2.397,3.495-2.397
		c1.711,0,3.266,0.71,3.492,2.573h-1.924c-0.164-0.871-0.888-1.115-1.699-1.115c-0.532,0-1.521,0.129-1.521,0.853
		c0,0.911,1.359,1.04,2.717,1.343c1.342,0.307,2.7,0.792,2.7,2.443c0,1.991-2.002,2.715-3.732,2.715c-2.1,0-3.67-0.938-3.704-2.909
		C88.778,33.606,90.619,33.606,90.619,33.606z"/>
</g>
<polygon fill="#7F8184" points="97.795,24.746 100.641,24.746 103.823,33.785 103.857,33.785 106.963,24.746 109.774,24.746 
	109.774,36.294 107.851,36.294 107.851,27.381 107.816,27.381 104.615,36.294 102.954,36.294 99.75,27.381 99.715,27.381 
	99.715,36.294 97.795,36.294 "/>
<g>
	<path fill="#7F8184" d="M116.29,32.105c-0.566,0.369-1.456,0.354-2.264,0.499c-0.791,0.13-1.503,0.419-1.503,1.392
		c0,0.82,1.05,1.065,1.696,1.065c0.812,0,2.072-0.417,2.072-1.582V32.105z M118.132,34.431c0,0.452,0.099,0.631,0.437,0.631
		c0.114,0,0.261,0,0.451-0.027v1.273c-0.274,0.099-0.856,0.21-1.162,0.21c-0.743,0-1.276-0.256-1.418-1.017
		c-0.732,0.707-1.914,1.017-2.898,1.017c-1.509,0-2.864-0.807-2.864-2.44c0-2.087,1.668-2.425,3.22-2.602
		c1.325-0.246,2.503-0.097,2.503-1.183c0-0.955-0.981-1.128-1.727-1.128c-1.037,0-1.763,0.42-1.847,1.327h-1.841
		c0.127-2.15,1.956-2.785,3.8-2.785c1.634,0,3.345,0.664,3.345,2.425V34.431z"/>
	<path fill="#7F8184" d="M119.636,27.931h1.732v1.618h0.032c0.21-0.888,1.311-1.847,2.438-1.847c0.42,0,0.539,0.034,0.696,0.051
		v1.777c-0.257-0.029-0.531-0.077-0.791-0.077c-1.258,0-2.263,1.018-2.263,2.859v3.98h-1.844L119.636,27.931L119.636,27.931z"/>
	<path fill="#7F8184" d="M125.041,27.931h1.392v-2.507h1.841v2.507h1.667v1.373h-1.667v4.465c0,0.757,0.067,1.15,0.891,1.15
		c0.26,0,0.517,0,0.776-0.064v1.419c-0.404,0.031-0.791,0.099-1.197,0.099c-1.924,0-2.274-0.745-2.31-2.138v-4.931h-1.392
		L125.041,27.931L125.041,27.931z"/>
	<path fill="#7F8184" d="M18.553,32.103c-0.566,0.372-1.457,0.356-2.267,0.502c-0.791,0.13-1.504,0.42-1.504,1.389
		c0,0.827,1.052,1.067,1.699,1.067c0.81,0,2.072-0.42,2.072-1.584C18.553,33.477,18.553,32.103,18.553,32.103z M20.396,34.434
		c0,0.452,0.097,0.63,0.437,0.63c0.112,0,0.259,0,0.452-0.031v1.278c-0.275,0.097-0.857,0.21-1.165,0.21
		c-0.745,0-1.278-0.259-1.424-1.018c-0.727,0.712-1.909,1.018-2.896,1.018c-1.504,0-2.864-0.807-2.864-2.443
		c0-2.087,1.667-2.428,3.221-2.607c1.326-0.241,2.507-0.095,2.507-1.181c0-0.955-0.987-1.132-1.731-1.132
		c-1.036,0-1.764,0.42-1.846,1.327h-1.844c0.13-2.153,1.958-2.784,3.804-2.784c1.634,0,3.349,0.664,3.349,2.428
		C20.396,30.13,20.396,34.434,20.396,34.434z"/>
	<path fill="#7F8184" d="M21.142,27.928h1.392v-2.507h1.844v2.507h1.667v1.377h-1.667v4.467c0,0.76,0.065,1.148,0.89,1.148
		c0.259,0,0.519,0,0.777-0.066v1.426c-0.404,0.031-0.793,0.096-1.198,0.096c-1.926,0-2.28-0.746-2.313-2.135v-4.936h-1.392
		C21.142,29.305,21.142,27.928,21.142,27.928z"/>
</g>
</svg>
